<svg xmlns="http://www.w3.org/2000/svg" xmlns:svg="http://www.w3.org/2000/svg" xmlns:xlink="http://www.w3.org/1999/xlink" id="svg4497" width="85.333" height="85.333" version="1.1" viewBox="0 0 85.333 85.333" xml:space="preserve"><metadata id="metadata4503"/><defs id="defs4501"><linearGradient id="linearGradient4510"><stop id="stop4506" offset="0" style="stop-color:#000;stop-opacity:.07843138"/><stop id="stop4508" offset="1" style="stop-color:#000;stop-opacity:.23529412"/></linearGradient><linearGradient id="linearGradient10483"><stop style="stop-color:#000;stop-opacity:0" id="stop10479" offset="0"/><stop style="stop-color:#000;stop-opacity:.27450982" id="stop10481" offset="1"/></linearGradient><linearGradient id="linearGradient10475"><stop style="stop-color:#c0e4f9;stop-opacity:1" id="stop10471" offset="0"/><stop style="stop-color:#7db6d8;stop-opacity:1" id="stop10473" offset="1"/></linearGradient><mask id="mask6450" maskUnits="userSpaceOnUse"><path style="opacity:1;vector-effect:none;fill:#7db6d8;fill-opacity:1;fill-rule:nonzero;stroke:none;stroke-width:.99999994;stroke-linecap:butt;stroke-linejoin:miter;stroke-miterlimit:4;stroke-dasharray:none;stroke-dashoffset:0;stroke-opacity:1" id="path6452" d="m 1298.1213,62.988483 c 0,-176.730003 -143.27,-320.000003 -319.99995,-320.000003 -176.73,0 -320,143.27 -320,320.000003 0,176.729997 143.27,319.999997 320,319.999997 176.72995,0 319.99995,-143.27 319.99995,-319.999997"/></mask><mask id="mask6537" maskUnits="userSpaceOnUse"><path style="opacity:1;vector-effect:none;fill:#fff;fill-opacity:1;fill-rule:nonzero;stroke:none;stroke-width:.99999994;stroke-linecap:butt;stroke-linejoin:miter;stroke-miterlimit:4;stroke-dasharray:none;stroke-dashoffset:0;stroke-opacity:1" id="path6539" d="M 640,320 C 640,143.27 496.73,7.5000003e-6 320,7.5000003e-6 143.27,7.5000003e-6 4e-6,143.27 4e-6,320 4e-6,496.73 143.27,640 320,640 496.73,640 640,496.73 640,320" mask="none"/></mask><mask id="mask10467" maskUnits="userSpaceOnUse"><path style="opacity:1;vector-effect:none;fill:#fff;fill-opacity:1;fill-rule:nonzero;stroke:none;stroke-width:.99999994;stroke-linecap:butt;stroke-linejoin:miter;stroke-miterlimit:4;stroke-dasharray:none;stroke-dashoffset:0;stroke-opacity:1" id="path10469" d="m 760.8074,-27.081577 c 0,-176.730003 -143.27,-320.000003 -320,-320.000003 -176.73,0 -319.99999,143.27 -319.99999,320.000003 0,176.729997 143.26999,319.999997 319.99999,319.999997 176.73,0 320,-143.27 320,-319.999997" mask="none"/></mask><radialGradient id="radialGradient10477" cx="270.143" cy="419.714" r="320" fx="270.143" fy="419.714" gradientUnits="userSpaceOnUse" xlink:href="#linearGradient10475"/><radialGradient id="radialGradient10489" cx="441.155" cy="-17.733" r="361.419" fx="441.155" fy="-17.733" gradientTransform="matrix(1,0,0,1.0553507,0,10.435338)" gradientUnits="userSpaceOnUse" xlink:href="#linearGradient10483"/><radialGradient id="radialGradient4504" cx="496.549" cy="8.253" r="361.419" fx="496.549" fy="8.253" gradientTransform="matrix(1,0,0,1.0553507,0,10.435338)" gradientUnits="userSpaceOnUse" xlink:href="#linearGradient4510"/></defs><g id="g4505" transform="matrix(1.3333333,0,0,-1.3333333,0,85.333333)"><g id="g4507" transform="scale(0.1)"><path style="fill:url(#radialGradient10477);fill-opacity:1;fill-rule:nonzero;stroke:none;font-variant-east_asian:normal;opacity:1;vector-effect:none;stroke-width:1;stroke-linecap:butt;stroke-linejoin:miter;stroke-miterlimit:4;stroke-dasharray:none;stroke-dashoffset:0;stroke-opacity:1" id="path4509" d="M 640,320 C 640,143.27 496.73,0 320,0 143.27,0 0,143.27 0,320 0,496.73 143.27,640 320,640 496.73,640 640,496.73 640,320" mask="none"/><g id="g10319" mask="url(#mask10467)" transform="translate(-120.8074,347.08158)" style="fill:url(#radialGradient10489);fill-opacity:1"><g id="g10316" transform="translate(-15.340623,-15.340623)" style="fill:url(#radialGradient10489);fill-opacity:1;fill-rule:nonzero;stroke:none;stroke-width:.99999994"><path style="stroke-width:.99999994;fill:url(#radialGradient4504);fill-opacity:1" id="path10236" d="m 456.1537,208.23256 c -11.04699,0 -19.99511,-8.94812 -19.99511,-19.99512 V 168.22767 H 321.00722 c -4.161,0 -10.04505,-2.45987 -13.08105,-5.46387 l -49.49708,-49.07226 c -3.02272,-2.99579 -3.03547,-7.90688 -0.0293,-10.91309 L 376.15862,-14.980342 v -68.789065 c 0,-2.279902 0.91155,-4.353982 2.373,-5.815432 l 57.62697,-57.626951 v -104.5459 c 0,-5.52712 2.23724,-10.54289 5.85938,-14.16504 l 282.84668,-282.83204 c 3.61733,-3.61734 8.60126,-5.85937 14.1211,-5.85937 11.04699,0 20.00976,8.96286 20.00976,20.00976 v 159.99024 h 155.1416 c 4.161,0 10.04506,2.45987 13.08106,5.46387 l 49.49707,49.07226 c 3.02272,2.99579 3.0355,7.89225 0.0293,10.89844 l -0.0147,0.0293 -1.71387,1.69922 -156.0205,156.02051 v 28.82813 c -10e-6,2.27603 -0.90117,4.3289 -2.35841,5.78613 L 533.79043,166.03041 c -1.35603,1.35603 -3.18037,2.19726 -5.18555,2.19726 h -24.16993 l -34.13085,34.13086 c -3.62214,3.62213 -8.62323,5.87403 -14.1504,5.87403 z"/></g></g><path style="fill:#f3cc70;fill-opacity:1;fill-rule:nonzero;stroke:none" id="path4513" d="M 300,520.004 V 80.0039 c 0,-11.0469 8.953,-20 20,-20 11.047,0 20,8.9531 20,20 V 520.004 c 0,11.047 -8.953,20 -20,20 -11.047,0 -20,-8.953 -20,-20"/><path style="fill:#495672;fill-opacity:1;fill-rule:nonzero;stroke:none" id="path4523" d="m 184.852,500 c -4.161,0 -10.043,-2.461 -13.079,-5.465 l -49.5,-49.07 c -3.031,-3.004 -3.031,-7.926 0,-10.93 l 49.5,-49.07 c 3.036,-3.004 8.918,-5.465 13.079,-5.465 h 207.586 c 4.16,0 7.562,3.598 7.562,7.992 v 104.016 c 0,4.394 -3.402,7.992 -7.562,7.992 H 184.852"/><path style="fill:#fff;fill-opacity:1;fill-rule:nonzero;stroke:none;stroke-opacity:1;stroke-width:1.50000004;stroke-miterlimit:4;stroke-dasharray:none" id="path4525" d="m 495.148,240 c 4.161,0 10.043,2.461 13.079,5.465 l 49.5,49.07 c 3.031,3.004 3.031,7.926 0,10.93 l -49.5,49.07 C 505.191,357.539 499.309,360 495.148,360 H 247.563 C 243.402,360 240,356.402 240,352.008 V 247.992 c 0,-4.394 3.402,-7.992 7.563,-7.992 h 247.585"/></g></g></svg>