<svg xmlns="http://www.w3.org/2000/svg" xmlns:svg="http://www.w3.org/2000/svg" id="svg8" width="144" height="144" version="1.1" viewBox="0 0 144 144"><metadata id="metadata5"/><g id="layer1" transform="translate(0,-978.51965)"><g style="font-style:normal;font-variant:normal;font-weight:400;font-stretch:normal;font-size:40px;line-height:1.25;font-family:'Book Antiqua';-inkscape-font-specification:'Book Antiqua';letter-spacing:0;word-spacing:0;fill:#000;fill-opacity:1;stroke:none" id="text5049" aria-label="n-o"><path style="font-style:normal;font-variant:normal;font-weight:700;font-stretch:condensed;font-size:96px;font-family:Arial;-inkscape-font-specification:'Arial Bold Condensed'" id="path5051" d="M 53.908552,1075.8 H 43.080427 v -25.4062 q 0,-7.6406 -0.609375,-10.1719 -0.609375,-2.5312 -2.296875,-3.8906 -1.640625,-1.3594 -3.75,-1.3594 -2.71875,0 -4.921875,1.7813 -2.203125,1.7343 -3.09375,4.8281 -0.890625,3.0937 -0.890625,11.6719 V 1075.8 H 16.689802 v -49.7812 h 10.03125 v 7.3125 q 2.671875,-4.2188 6,-6.3281 3.375,-2.1094 7.453125,-2.1094 4.734375,0 7.96875,2.4844 3.28125,2.4375 4.5,6.3281 1.265625,3.8437 1.265625,11.1562 z"/><path style="font-style:normal;font-variant:normal;font-weight:700;font-stretch:condensed;font-size:96px;font-family:Arial;-inkscape-font-specification:'Arial Bold Condensed'" id="path5053" d="M 61.783552,1057.4719 V 1044.3 h 21.234375 v 13.1719 z"/><path style="font-style:normal;font-variant:normal;font-weight:700;font-stretch:condensed;font-size:96px;font-family:Arial;-inkscape-font-specification:'Arial Bold Condensed'" id="path5055" d="m 88.689802,1050.2063 q 0,-7.3125 2.90625,-13.3125 2.90625,-6 7.59375,-9 4.687498,-3 10.546878,-3 9.84375,0 15.46875,7.7344 5.625,7.6875 5.625,18 0,7.6875 -2.95313,13.875 -2.90625,6.1875 -7.6875,9.3281 -4.73437,3.0937 -10.40625,3.0937 -9.09375,0 -15.093748,-6.9375 -6,-6.9375 -6,-19.7812 z m 11.0625,0.7031 q 0,7.5469 2.953128,11.4375 2.95312,3.8438 7.125,3.8438 4.07812,0 6.98437,-3.8907 2.90625,-3.8906 2.90625,-11.4843 0,-7.4063 -2.95312,-11.2969 -2.95313,-3.8906 -7.07813,-3.8906 -4.07812,0 -7.03125,3.8906 -2.906248,3.8906 -2.906248,11.3906 z"/></g></g></svg>