<svg xmlns="http://www.w3.org/2000/svg" xmlns:svg="http://www.w3.org/2000/svg" id="svg4540" width="100" height="100" version="1.1" viewBox="0 0 26.458 26.458"><metadata id="metadata4537"/><g id="layer1" transform="translate(0,-270.54165)"><g id="g4531"><g id="g4518"><rect style="opacity:1;vector-effect:none;fill:#495aad;fill-opacity:1;stroke:none;stroke-width:.89958334;stroke-linecap:round;stroke-linejoin:round;stroke-miterlimit:4;stroke-dasharray:none;stroke-dashoffset:0;stroke-opacity:1;paint-order:stroke fill markers" id="rect6068" width="26.458" height="26.458" x="0" y="270.542" rx="2.138" ry="2.091"/><rect style="opacity:1;vector-effect:none;fill:#fff;fill-opacity:1;stroke:none;stroke-width:.89958334;stroke-linecap:round;stroke-linejoin:round;stroke-miterlimit:4;stroke-dasharray:none;stroke-dashoffset:0;stroke-opacity:1;paint-order:stroke fill markers" id="rect6068-3" width="25.4" height="25.4" x=".529" y="271.071" rx="1.852" ry="1.852"/><rect style="opacity:1;vector-effect:none;fill:#495aad;fill-opacity:1;stroke:none;stroke-width:.89958334;stroke-linecap:round;stroke-linejoin:round;stroke-miterlimit:4;stroke-dasharray:none;stroke-dashoffset:0;stroke-opacity:1;paint-order:stroke fill markers" id="rect6068-3-8" width="23.283" height="23.283" x="1.587" y="272.129" rx="1.058" ry="1.058"/></g><path id="path6554" d="m 10.694216,273.71665 c -0.7561978,0.37798 -0.9453095,2.26786 -0.9453095,2.26786 -0.4007755,0.10554 -0.9525297,0.43464 -0.9526919,0.77071 l 0.00738,0.74119 c 3.704e-4,0.37798 0.1893575,0.56697 0.7563215,0.56697 v 0.94494 c 0,0 -0.051866,0.36801 0.1889882,0.37797 h 0.9449407 c 0.236295,0 0.188987,-0.37797 0.188987,-0.37797 v -0.75596 h 3.401786 v 0.75596 c 0,0 -0.0462,0.37797 0.190096,0.37797 h 0.945309 c 0.236296,0 0.187512,-0.37797 0.187512,-0.37797 v -0.94494 c 0.566964,0 0.756071,-0.18899 0.757798,-0.56697 v -0.75595 c -0.102927,-0.35356 -0.615972,-0.64981 -0.94531,-0.75595 0,0 -0.190589,-1.88988 -0.945309,-2.26786 z m 0.47247,0.75595 h 2.83556 c 0.472595,0.56697 0.472471,1.51191 0.472471,1.51191 h -3.780501 c 0,0 -1.25e-4,-0.94494 0.47247,-1.51191 z m -1.050139,2.07924 a 0.56696432,0.56696432 0 0 1 0.566965,0.56696 0.56696432,0.56696432 0 0 1 -0.566965,0.56697 0.56696432,0.56696432 0 0 1 -0.5669639,-0.56697 0.56696432,0.56696432 0 0 1 0.5669639,-0.56696 z m 4.924396,0 a 0.56696432,0.56696432 0 0 1 0.566964,0.56696 0.56696432,0.56696432 0 0 1 -0.566964,0.56697 0.56696432,0.56696432 0 0 1 -0.566965,-0.56697 0.56696432,0.56696432 0 0 1 0.566965,-0.56696 z" style="fill:#fff;fill-opacity:1;fill-rule:nonzero;stroke:none;stroke-width:.01815843"/><g id="g4513"><path id="path5253" d="m 4.6090672,292.9277 c 1.8102123,-0.89281 1.9364944,-2.73055 2.7608694,-5.15363 0.7875064,3.22902 1.8746851,3.05434 1.6565216,5.52174" style="fill:none;fill-opacity:1;fill-rule:evenodd;stroke:#fff;stroke-width:1.10434771;stroke-linecap:round;stroke-linejoin:round;stroke-miterlimit:4;stroke-dasharray:none;stroke-opacity:1;paint-order:stroke fill markers"/><path id="path5255" d="m 7.6862074,285.37292 c -0.2427137,0.92032 -0.4396715,3.73721 -0.4396715,3.73721" style="fill:none;fill-opacity:1;fill-rule:evenodd;stroke:#fff;stroke-width:1.47246361;stroke-linecap:butt;stroke-linejoin:miter;stroke-miterlimit:4;stroke-dasharray:none;stroke-opacity:1;paint-order:stroke fill markers"/><path id="path5261" d="m 4.9399813,287.79111 c 0.7328926,-1.33622 2.1429517,-2.44615 2.7462283,-2.96196 1.0127122,0.86558 0.3675378,2.97098 2.1983552,2.74213" style="fill:none;fill-opacity:1;fill-rule:evenodd;stroke:#fff;stroke-width:1.10434771;stroke-linecap:round;stroke-linejoin:round;stroke-miterlimit:4;stroke-dasharray:none;stroke-opacity:1;paint-order:stroke fill markers"/><circle id="path5263" cx="8.325" cy="282.577" r="1.333" style="opacity:1;vector-effect:none;fill:#fff;fill-opacity:1;stroke:none;stroke-width:1.28840566;stroke-linecap:round;stroke-linejoin:round;stroke-miterlimit:4;stroke-dasharray:none;stroke-dashoffset:0;stroke-opacity:1;paint-order:normal"/></g><path id="path8169-4-8-0-95-6-8" d="m 17.440339,286.72946 a 1.79299,1.7852958 0 0 1 -1.792991,1.7853 1.79299,1.7852958 0 0 1 -1.79299,-1.7853 1.79299,1.7852958 0 0 1 1.79299,-1.78529 1.79299,1.7852958 0 0 1 1.792991,1.78529 z m 5.842994,-3.2e-4 a 1.79299,1.7852958 0 0 1 -1.79299,1.78529 1.79299,1.7852958 0 0 1 -1.79299,-1.78529 1.79299,1.7852958 0 0 1 1.79299,-1.78529 1.79299,1.7852958 0 0 1 1.79299,1.78529 z m -6.639191,-2.74971 2.26614,2.73994 h 2.589874 l -1.780539,-2.73994 h -3.075475 m 2.26614,2.73994 0.809335,-3.38462 m 0,0 0.788896,-0.002 m -4.835574,3.38627 1.349112,-3.99949 h 1.294937" style="opacity:1;vector-effect:none;fill:none;fill-opacity:1;stroke:#fff;stroke-width:.72028613;stroke-linecap:round;stroke-linejoin:round;stroke-miterlimit:4;stroke-dasharray:none;stroke-dashoffset:0;stroke-opacity:1;paint-order:normal"/></g></g></svg>