<svg xmlns="http://www.w3.org/2000/svg" xmlns:svg="http://www.w3.org/2000/svg" id="svg6092" width="160" height="110" version="1.1" viewBox="0 0 42.333 29.104"><metadata id="metadata6089"/><path id="path5065-7" d="M 25.397786,3.5625001 24.395833,3.904297 23.575521,1.4941407 24.577474,1.1523439 Z m 2.042969,6.0117188 -1.001953,0.3417968 -1.021485,-3.0058594 1.001954,-0.3417968 z m 2.044922,6.0117191 -1.001953,0.341796 -1.021485,-3.005859 1.001953,-0.341797 z m 2.044922,6.013671 -1.001954,0.339844 -1.023437,-3.005859 1.001953,-0.339844 z m 2.042968,6.011719 -1.001953,0.339844 -1.021484,-3.00586 1.001953,-0.339843 z" style="color:#000;font-style:normal;font-variant:normal;font-weight:400;font-stretch:normal;font-size:medium;line-height:normal;font-family:sans-serif;font-variant-ligatures:normal;font-variant-position:normal;font-variant-caps:normal;font-variant-numeric:normal;font-variant-alternates:normal;font-feature-settings:normal;text-indent:0;text-align:start;text-decoration:none;text-decoration-line:none;text-decoration-style:solid;text-decoration-color:#000;letter-spacing:normal;word-spacing:normal;text-transform:none;writing-mode:lr-tb;direction:ltr;text-orientation:mixed;dominant-baseline:auto;baseline-shift:baseline;text-anchor:start;white-space:normal;shape-padding:0;clip-rule:nonzero;display:inline;overflow:visible;visibility:visible;opacity:1;isolation:auto;mix-blend-mode:normal;color-interpolation:sRGB;color-interpolation-filters:linearRGB;solid-color:#000;solid-opacity:1;vector-effect:none;fill:#fff;fill-opacity:1;fill-rule:nonzero;stroke:none;stroke-width:1.05833328;stroke-linecap:butt;stroke-linejoin:miter;stroke-miterlimit:4;stroke-dasharray:3.17499978,3.17499978;stroke-dashoffset:0;stroke-opacity:1;color-rendering:auto;image-rendering:auto;shape-rendering:auto;text-rendering:auto;enable-background:accumulate"/><path style="fill:#333;fill-opacity:1;stroke:none;stroke-width:.26458332px;stroke-linecap:butt;stroke-linejoin:miter;stroke-opacity:1" id="path5048" d="M 1.322917,27.78125 15.875,1.3229166 l 4.7625,10e-8 -3.439584,26.4583333 z"/><path style="fill:#fff;fill-opacity:1;stroke:none;stroke-width:.26458332px;stroke-linecap:butt;stroke-linejoin:miter;stroke-opacity:1" id="path5141" d="m 16.808793,3.4395833 -0.771529,2.1166666 h 1.324467 l 0.645955,-2.1166666 z m -1.639177,4.4979166 -0.964282,2.6458331 h 1.623157 l 0.807186,-2.6458331 z m -2.025199,5.5562501 -1.157035,3.175 h 1.985408 l 0.968417,-3.175 z M 10.733712,20.108333 9.3839233,23.8125 h 2.4096717 l 1.130164,-3.704167 z"/><path style="fill:#333;fill-opacity:1;stroke:none;stroke-width:.26458332px;stroke-linecap:butt;stroke-linejoin:miter;stroke-opacity:1" id="path5048-6" d="M 41.010416,27.78125 26.458333,1.3229166 l -4.7625,10e-8 3.439584,26.4583333 z"/><path style="fill:#fff;fill-opacity:1;stroke:none;stroke-width:.26458332px;stroke-linecap:butt;stroke-linejoin:miter;stroke-opacity:1" id="path5141-3" d="m 25.52454,3.4395832 0.771529,2.1166667 H 24.971602 L 24.325647,3.4395832 Z m 1.639177,4.4979167 0.964282,2.6458331 H 26.504842 L 25.697656,7.9374999 Z m 2.025199,5.5562501 1.157035,3.175 h -1.985408 l -0.968417,-3.175 z m 2.410705,6.614583 1.349789,3.704167 h -2.409672 l -1.130164,-3.704167 z"/></svg>