<svg xmlns="http://www.w3.org/2000/svg" xmlns:svg="http://www.w3.org/2000/svg" id="svg6092" width="160" height="110" version="1.1" viewBox="0 0 42.333 29.104"><metadata id="metadata6089"/><path id="path4485-6-9-0-0" d="M 5.8518373,7.5881674 C 4.8150834,9.7807298 4.2333308,12.230367 4.2333308,14.816666 c 0,4.14061 1.4883235,7.932177 3.9563462,10.874272 l 9.801987,-4.524272 h 6.35 l 9.801987,4.524272 c 2.468022,-2.942095 3.956346,-6.733662 3.956346,-10.874272 0,-2.586299 -0.581753,-5.0359362 -1.618507,-7.2284986 L 28.574997,8.4666661 H 13.758331 Z" style="fill:#ffff5a;fill-opacity:.53333285;stroke-width:.05291667"/><path id="path4750" d="m 14.816664,8.4666661 2.116667,12.6999999 h 8.466666 L 27.516664,8.4666661 Z" style="fill:#ffffdf;fill-opacity:1;fill-rule:evenodd;stroke:#a28941;stroke-width:1.05833328;stroke-linecap:butt;stroke-linejoin:miter;stroke-miterlimit:4;stroke-dasharray:none;stroke-opacity:1"/><path id="path4817" d="M 17.991664,8.4666661 19.049997,21.166666" style="fill:none;fill-rule:evenodd;stroke:#a28941;stroke-width:1.05833328;stroke-linecap:butt;stroke-linejoin:miter;stroke-miterlimit:4;stroke-dasharray:none;stroke-opacity:1"/><path id="path4817-0" d="M 24.341664,8.4666661 23.283331,21.166666" style="fill:none;fill-rule:evenodd;stroke:#a28941;stroke-width:1.05833328;stroke-linecap:butt;stroke-linejoin:miter;stroke-miterlimit:4;stroke-dasharray:none;stroke-opacity:1"/><path id="path4770" d="M 12.699997,8.4666661 H 29.63333 V 6.3499995 c -3.175,0 -5.291666,-4.2333333 -8.466666,-5.2916666 -3.175,1.0583333 -5.291667,5.2916666 -8.466667,5.2916666 z" style="fill:#333;fill-opacity:1;fill-rule:evenodd;stroke:none;stroke-width:.26458332px;stroke-linecap:butt;stroke-linejoin:miter;stroke-opacity:1"/><path id="path4485-6-9-0-6" d="m 16.933331,21.166666 v 2.116667 l 2.645833,1.058333 v 3.439581 h 3.175 v -3.439581 l 2.645833,-1.058333 v -2.116667 z" style="fill:#333;fill-opacity:1;stroke-width:.05291667"/></svg>