<svg xmlns="http://www.w3.org/2000/svg" xmlns:svg="http://www.w3.org/2000/svg" id="svg12" width="44" height="44" version="1.1" viewBox="0 0 44 44"><metadata id="metadata18"/><g id="g4500" transform="rotate(-180,17.999693,21.49587)"><path style="fill:#dd2e44" id="path6-3" d="m 6.999386,8.99174 c 2.390636,4 1.936114,3.28813 3,5 -0.192502,1.526659 -1,4 -1,4 -0.975818,-1.386199 -8,0 -11,-3 -3,-3 -2,-7 0,-9 2,-2 6.609364,-1 9,3 z m -7,4 c 2,2 5.88004,1.114385 6,1 0.623369,-0.594398 -0.376631,-1.695318 -2,-4 -1.623369,-2.304682 -3,-3 -4,-2 -1,1 -2,3 0,5 z"/><path id="path8-0" d="m 23.999386,38.99174 c 1.163,-0.657 1.658,-2.836 1,-4 l -9,-16 c -1,-2 -5,-3 -6,-5 -1.103,0.496 -0.394,2.401 -1,4 z" style="fill:#99aab5;fill-opacity:1"/><path style="fill:#dd2e44" id="path6" d="m 20.999386,8.99174 c -2.390636,4 -1.936114,3.28813 -3,5 0.192502,1.526659 1,4 1,4 0.975818,-1.386199 8,0 11,-3 3,-3 2,-7 0,-9 -2,-2 -6.609364,-1 -9,3 z m 7,4 c -2,2 -5.88004,1.114385 -6,1 -0.623369,-0.594398 0.376631,-1.695318 2,-4 1.623369,-2.304682 3,-3 4,-2 1,1 2,3 0,5 z"/><path id="path8" d="m 3.999386,38.99174 c -1.163,-0.657 -1.658,-2.836 -1,-4 l 9,-16 c 1,-2 5,-3 6,-5 1.103,0.496 0.394,2.401 1,4 z" style="fill:#ccd6dd"/><circle id="path4533" cx="-13.999" cy="-20.992" r="1.372" transform="scale(-1)" style="fill:#99aab5;fill-opacity:1;stroke:none;stroke-width:12;stroke-linecap:round;stroke-linejoin:miter;stroke-miterlimit:4;stroke-dasharray:none;stroke-opacity:1;paint-order:fill markers stroke"/></g></svg>