<svg xmlns="http://www.w3.org/2000/svg" xmlns:svg="http://www.w3.org/2000/svg" id="SVGRoot" width="640" height="640" version="1.1" viewBox="0 0 640 640"><metadata id="metadata4488"/><g id="layer1" transform="translate(0,384)"><g id="g5595"><path id="path5044" d="m 566.91391,-267.80225 a 320,320 0 0 1 57.52273,104.97064 L 320,-64.25 Z" style="opacity:1;fill:#ffc;fill-opacity:.49803922;stroke:none;stroke-width:5.00488758;stroke-linecap:square;stroke-linejoin:round;stroke-miterlimit:4;stroke-dasharray:none;stroke-opacity:1;paint-order:normal"/><path id="path5044-8" d="M 44.710866,98.893779 A 320,320 0 0 1 12.700532,25.00826 L 320,-64.25 Z" style="opacity:1;fill:#ffc;fill-opacity:.49803922;stroke:none;stroke-width:5.00488758;stroke-linecap:square;stroke-linejoin:round;stroke-miterlimit:4;stroke-dasharray:none;stroke-opacity:1;paint-order:normal"/><path id="path5044-8-8" d="m 238.8776,-373.7967 a 320,320 0 0 1 45.91816,-8.51094 L 320,-64.25 Z" style="opacity:1;fill:#ffc;fill-opacity:.49803922;stroke:none;stroke-width:5.00488758;stroke-linecap:square;stroke-linejoin:round;stroke-miterlimit:4;stroke-dasharray:none;stroke-opacity:1;paint-order:normal"/><path style="opacity:1;fill:#ffc;fill-opacity:.49803922;stroke:none;stroke-width:5.00488758;stroke-linecap:square;stroke-linejoin:round;stroke-miterlimit:4;stroke-dasharray:none;stroke-opacity:1;paint-order:normal" id="path5044-5-8" d="m 579.65314,122.78007 a 320,320 0 0 1 -54.99292,58.96626 L 320,-64.25 Z"/><path id="path5044-8-8-5" d="M 317.73891,255.74201 A 320,320 0 0 1 157.81432,211.60468 L 320,-64.25 Z" style="opacity:1;fill:#ffc;fill-opacity:.49803922;stroke:none;stroke-width:5.00488758;stroke-linecap:square;stroke-linejoin:round;stroke-miterlimit:4;stroke-dasharray:none;stroke-opacity:1;paint-order:normal"/><path id="path5044-6-7" d="m 60.254498,-251.15178 a 320,320 0 0 1 77.694192,-76.26608 L 320,-64.25 Z" style="opacity:1;fill:#ffc;fill-opacity:.49803922;stroke:none;stroke-width:5.00488758;stroke-linecap:square;stroke-linejoin:round;stroke-miterlimit:4;stroke-dasharray:none;stroke-opacity:1;paint-order:normal"/></g></g></svg>